<svg class="w-full" viewBox="0 0 150 36" fill="none" xmlns="http://www.w3.org/2000/svg"><path d="M62.9012 11.3497H58.8799C58.6975 11.3497 58.5454 11.5008 58.5454 11.6821V13.1175C57.238 11.6066 55.5048 10.8738 53.2547 10.8738C51.0047 10.8738 48.7318 11.7501 47.0595 13.4801C45.3871 15.2101 44.5433 17.3253 44.5433 19.7654C44.5433 22.2055 45.3795 24.3434 47.029 26.0885C48.709 27.7959 50.807 28.6646 53.2547 28.6646C55.7025 28.6646 57.238 27.9318 58.5454 26.4209V27.7279C58.5454 30.2662 56.9795 31.7242 54.2506 31.7242C51.5216 31.7242 50.8602 31.0141 50.0317 29.624C49.9405 29.4654 49.7352 29.4125 49.5756 29.4956L46.0637 31.49C45.9876 31.5353 45.9268 31.6033 45.904 31.694C45.8812 31.7771 45.8888 31.8677 45.9344 31.9433C47.4775 34.5571 50.3813 36 54.1061 36C57.8309 36 58.7431 35.305 60.5219 33.8848C62.3158 32.4494 63.228 30.3795 63.228 27.7203V11.6746C63.228 11.4932 63.076 11.3422 62.8936 11.3422L62.9012 11.3497ZM58.5454 19.7654C58.5454 22.3566 56.607 24.2377 53.9389 24.2377C51.2707 24.2377 49.3323 22.3566 49.3323 19.7654C49.3323 17.1742 49.7656 17.4084 50.6094 16.6001C51.5064 15.7389 52.5934 15.3234 53.9389 15.3234C55.2844 15.3234 56.3714 15.7389 57.238 16.6001C58.1046 17.4009 58.5454 18.466 58.5454 19.7654Z" fill="white" class="" style="animation-delay: 500ms;"></path><path d="M75.8087 11.0626C74.8052 11.1155 72.4336 11.4856 71.1717 13.6764V11.7274C71.1717 11.5461 71.0197 11.395 70.8372 11.395H66.7172C66.5347 11.395 66.3827 11.5461 66.3827 11.7274V28.4455C66.3827 28.6268 66.5347 28.7779 66.7172 28.7779H70.8372C71.0197 28.7779 71.1717 28.6268 71.1717 28.4455V20.4604C71.1717 18.8815 71.6582 17.7861 72.6616 17.1062C73.8627 16.2979 75.4134 16.2827 76.0291 16.313C76.1203 16.313 76.2039 16.2827 76.2724 16.2223C76.3408 16.1619 76.3788 16.0712 76.3788 15.9806V11.5914C76.3788 11.4479 76.318 11.3043 76.2115 11.1986C76.1051 11.1004 75.9607 11.0475 75.8163 11.055L75.8087 11.0626Z" fill="white" class="" style="animation-delay: 500ms;"></path><path d="M95.9833 11.3497H91.8632C91.6808 11.3497 91.5288 11.5008 91.5288 11.6821V13.0419C90.1909 11.5839 88.4197 10.8738 86.1392 10.8738C83.8588 10.8738 81.7987 11.7728 80.1112 13.5556C78.4692 15.3309 77.6331 17.5142 77.6331 20.0449C77.6331 22.5757 78.4692 24.7892 80.1112 26.5645C81.7987 28.3398 83.7675 29.2085 86.1316 29.2085C88.4957 29.2085 90.1833 28.4984 91.5212 27.0404V28.4002C91.5212 28.5815 91.6732 28.7326 91.8556 28.7326H95.9757C96.1581 28.7326 96.3102 28.5815 96.3102 28.4002V11.6821C96.3102 11.5008 96.1581 11.3497 95.9757 11.3497H95.9833ZM91.5288 20.0374C91.5288 21.4047 91.0955 22.5002 90.2137 23.3765C89.3623 24.2226 88.2677 24.6456 86.9602 24.6456C85.6527 24.6456 84.5505 24.215 83.7067 23.3765C82.8553 22.5002 82.4221 21.3745 82.4221 20.0374C82.4221 18.7002 82.8553 17.5746 83.7067 16.7285C84.5581 15.8522 85.6223 15.4216 86.9602 15.4216C88.2981 15.4216 89.3623 15.8522 90.2137 16.7285C91.0879 17.5671 91.5288 18.6776 91.5288 20.0374Z" fill="white" class="" style="animation-delay: 500ms;"></path><path d="M128.609 10.8738C125.895 10.8738 123.668 11.7652 121.973 13.5179C120.255 15.2554 119.388 17.4537 119.388 20.0449C119.388 22.6361 120.27 24.8798 122.011 26.6022C123.752 28.3322 126.085 29.2085 128.951 29.2085C131.817 29.2085 134.713 28.0225 136.431 25.6806C136.484 25.6051 136.507 25.5068 136.492 25.4162C136.477 25.3255 136.416 25.2424 136.332 25.1971L133.026 23.2858C132.889 23.2103 132.706 23.2405 132.6 23.3689C131.779 24.3586 130.578 24.8572 129.027 24.8572C126.557 24.8572 125.059 23.9355 124.451 22.0318H136.978C137.146 22.0318 137.283 21.9109 137.305 21.7523C137.351 21.4199 137.465 20.5889 137.465 20.0449C137.465 17.4462 136.644 15.3083 134.949 13.5254C133.322 11.7728 131.194 10.8813 128.617 10.8813L128.609 10.8738ZM124.367 18.2545C124.922 16.3055 126.458 15.1874 128.609 15.1874C130.76 15.1874 132.098 16.3281 132.615 18.2545H124.36H124.367Z" fill="white" class="" style="animation-delay: 500ms;"></path><path d="M35.2237 10.5035C33.0041 10.1183 31.1037 10.5187 29.5682 11.7047L29.8038 10.3751C29.819 10.2845 29.8038 10.2014 29.7506 10.1258C29.6974 10.0503 29.6214 10.005 29.5378 9.98984L25.4785 9.27972C25.3949 9.26461 25.3037 9.27972 25.2277 9.3326C25.1517 9.38548 25.106 9.46103 25.0908 9.54412L20.9784 32.7062C20.948 32.8875 21.0696 33.0613 21.252 33.0915L25.3113 33.8016C25.3341 33.8016 25.3493 33.8016 25.3721 33.8016C25.5317 33.8016 25.6686 33.6883 25.699 33.5297L27.1205 25.4992C28.1543 27.1386 29.8038 28.1584 32.0235 28.5512C34.3572 28.9592 36.5084 28.4304 38.4164 26.9875C40.37 25.537 41.5863 23.5275 42.0348 20.9967C42.4757 18.4887 42.0272 16.1996 40.6893 14.175C39.3742 12.1429 37.5346 10.9039 35.2237 10.496V10.5035ZM37.3142 20.1733C37.0785 21.518 36.4628 22.5228 35.4366 23.2329C34.456 23.9203 33.3006 24.147 32.0083 23.9203C30.716 23.6937 29.7126 23.0818 29.0285 22.1073C28.3443 21.095 28.1163 19.9165 28.3519 18.5944C28.5876 17.2648 29.2033 16.245 30.1915 15.5575C30.9365 15.0136 31.7574 14.7492 32.6848 14.7492C33.6122 14.7492 33.3005 14.7794 33.6274 14.8323C34.9501 15.0665 35.9231 15.6708 36.6072 16.6831C37.3218 17.6501 37.5574 18.8211 37.3218 20.1582L37.3142 20.1733Z" fill="#82E1FF" class=""></path><path d="M17.8086 6.49969L23.1449 8.34299C23.2361 8.37321 23.3426 8.36565 23.4262 8.31277C23.5098 8.25989 23.5706 8.17679 23.5858 8.08614L24.3384 3.84807C24.3688 3.68942 24.2776 3.53078 24.1179 3.47789L14.0838 0.025487C13.9394 -0.0273945 13.7722 0.00282627 13.6505 0.108589L6.6647 6.06153C6.57348 6.13708 6.53547 6.25795 6.55067 6.37127L7.41725 11.1835C7.44006 11.3044 7.51607 11.395 7.63009 11.4403C7.74412 11.4781 7.86575 11.4554 7.95696 11.3799L12.7764 7.29291L14.8516 18.9797C15.1329 20.5511 14.5171 22.0997 13.2173 23.1196C13.0652 23.2405 12.898 23.3462 12.7232 23.4369C11.4537 24.0941 10.017 24.1243 8.77793 23.52C7.56168 22.9232 6.6875 21.7749 6.45945 20.4529L5.00755 12.2562C4.99235 12.1656 4.94674 12.09 4.87072 12.0447C4.79471 11.9918 4.71109 11.9767 4.61987 11.9918L0.271765 12.7548C0.180546 12.7699 0.104531 12.8153 0.0589216 12.8908C0.00571052 12.9663 -0.00949358 13.0494 0.00570959 13.1401L1.44241 21.2536C2.23297 25.7032 6.10218 28.929 10.6403 28.929C11.18 28.929 11.7273 28.8837 12.2671 28.7855C15.3837 28.2415 17.915 26.2547 19.2225 23.3387C19.9523 21.7069 20.1575 19.8107 19.8154 17.8692L17.801 6.5148L17.8086 6.49969Z" fill="#82E1FF" class=""></path><path d="M116.979 6.06157L112.859 4.64133C112.76 4.60356 112.646 4.61866 112.555 4.68665C112.471 4.74709 112.418 4.85285 112.418 4.95861V13.0419C111.118 11.6066 109.316 10.8813 107.059 10.8813C104.801 10.8813 102.68 11.7803 101 13.5632C99.3584 15.3385 98.5222 17.5217 98.5222 20.0525C98.5222 22.5833 99.3584 24.8043 101 26.572C102.665 28.3247 104.702 29.2161 107.059 29.2161C109.415 29.2161 111.11 28.4909 112.418 27.0555V28.4078C112.418 28.5891 112.57 28.7402 112.752 28.7402H116.872C117.055 28.7402 117.207 28.5891 117.207 28.4078V6.37886C117.207 6.23533 117.116 6.11445 116.986 6.06913L116.979 6.06157ZM112.418 20.0374C112.418 21.3745 111.985 22.5002 111.133 23.3765C110.282 24.2226 109.187 24.6456 107.88 24.6456C106.572 24.6456 105.485 24.2301 104.588 23.3765C103.737 22.5002 103.304 21.3745 103.304 20.0374C103.304 18.7003 103.737 17.5746 104.581 16.7361C105.462 15.8598 106.542 15.4292 107.872 15.4292C109.202 15.4292 110.274 15.8598 111.126 16.7361C111.977 17.5822 112.403 18.6927 112.403 20.0449L112.418 20.0374Z" fill="white" class="" style="animation-delay: 500ms;"></path><path d="M149.825 11.1609C149.719 11.0626 149.574 11.0022 149.43 11.0173C148.427 11.0702 146.055 11.4404 144.793 13.6312V11.6821C144.793 11.5008 144.641 11.3497 144.459 11.3497H140.339C140.156 11.3497 140.004 11.5008 140.004 11.6821V28.4002C140.004 28.5815 140.156 28.7326 140.339 28.7326H144.459C144.641 28.7326 144.793 28.5815 144.793 28.4002V20.4151C144.793 18.8362 145.28 17.7408 146.283 17.0609C147.484 16.2526 149.035 16.2375 149.65 16.2677C149.742 16.2753 149.825 16.245 149.894 16.177C149.962 16.1166 150 16.026 150 15.9353V11.5461C150 11.4026 149.939 11.2591 149.833 11.1533L149.825 11.1609Z" fill="white" class="" style="animation-delay: 500ms;"></path></svg>